<?xml version="1.0" encoding="UTF-8"?>
<svg id="Layer_1" data-name="Layer 1" xmlns="http://www.w3.org/2000/svg" viewBox="0 0 24 24">
  <defs>
    <style>
      .cls-1 {
        fill: white;
        fill-rule: evenodd;
        stroke-width: 0px;
      }
    </style>
  </defs>
  <path class="cls-1" d="M19.86,17.2c-.13-.12-.23-.24-.26-.36-.13-.46.04-1.79.3-2.2.26-.42-.03-1.67-.11-1.87-.09-.21-.12-.48-.41-.4-.3.08-.97.05-1.57-.07-.61-.12-1.14-.71-1.26-1.37-.14-.74-.14-1.46.04-1.91.19-.51.67-.7,1.1-.94.2-.11,1.17-.26,1.13-.73-.23-.43-2.29.06-2.37-.61-.08-.67-.11-1.01.15-1.54.27-.56-.04-.49-.12-1.17-.01-.1.2-.35.22-.44.71.4,1.38.89,1.98,1.46,1.88,1.8,2.91,4.2,2.91,6.75,0,1.95-.61,3.81-1.74,5.38ZM15.44,16.9c-.41.65-.31,1.13-1.25,1.63-.52.28-.89.36-1.17,1.1-.28.74-.74.72-1.88,1.32-1.15.61-1.6,0-1.7-.46-.09-.46.19-1.56.19-1.56,0,0,.11-.33-.7-.7-2.05-.94-.28-4.22-.28-4.22-.46-.54-1.64-1.61-3.29-1.96-1.57-.33-2.02-1.26-2.57-2.18.4-1.71,1.25-3.27,2.51-4.55,1.8-1.82,4.18-2.92,6.72-2.92,0,0,.86,0,1.67.21-.74.81-1.57,1.64-2.18,1.86-1.11.41-1.62,1.08-1.62,1.8,0,.37.77,1.05.77,1.9,0,1.45-1.06,1.48-1.19.87-.28-1.38-1.35-1.03-2.63-.89-1.28.14-2.06,1.65-1.24,2.26.83.6.78-.19,1.1-.42.32-.23.54-.32.78,0,.24.32.75.49.7,1.14-.04.65-.18,1.21.69,1.21s.9.19,1.45.47c.55.28,1.07.23,1.52.32.46.09,1.06.99,1.06.99,1.3.43,1.73.6,2.09.96.36.36.86,1.16.44,1.81ZM12,0h0C7.23,0,3.13,2.78,1.19,6.8.43,8.37,0,10.13,0,12c0,6.63,5.37,12,11.99,12h0c6.63,0,12-5.37,12-12,0-6.69-5.45-12-12-12Z"/>
</svg>